<svg width="20" height="22" viewBox="0 0 20 22" fill="none" xmlns="http://www.w3.org/2000/svg">
<path d="M19.6087 19.9917C19.6402 20.2105 19.7422 20.839 19.6087 20.9917C19.4761 21.1446 18.8309 20.9917 18.6087 20.9917C18.3865 20.9917 18.7479 21.1386 18.6087 20.9917L14.6087 16.9917C13.5797 17.8966 11.9047 17.6731 10.6087 17.9917C9.33849 18.2983 8.87889 18.2983 7.60869 17.9917C6.31365 17.6731 4.62432 17.8966 3.60869 16.9917C2.42711 15.954 1.11608 14.4689 0.608691 12.9917C0.112841 11.5415 0.367419 9.49594 0.608691 7.99173C0.849902 6.43564 1.6303 5.2352 2.60869 3.99173C3.58715 2.74722 5.19921 2.53806 6.60869 1.99173C7.96764 1.47336 9.18584 0.739046 10.6087 0.991731C12.082 1.25736 13.4338 1.95395 14.6087 2.99173C15.7836 4.02945 16.0879 5.50156 16.6087 6.99173C17.1046 8.44193 17.85 9.48856 17.6087 10.9917C17.3674 12.5608 16.5995 13.7683 15.6087 14.9917L19.6087 19.9917C19.7603 20.1515 19.5773 19.7719 19.6087 19.9917ZM2.60869 12.9917C3.23046 14.0834 4.56731 15.3526 5.60869 15.9917C6.68822 16.657 7.37657 16.9988 8.60869 16.9917C9.84075 16.9848 11.5282 16.6569 12.6087 15.9917C13.6376 15.3525 13.9993 14.0694 14.6087 12.9917C15.2438 11.8741 15.6087 11.2892 15.6087 9.99173C15.6087 8.69437 15.2438 7.10941 14.6087 5.99173C13.9993 4.90109 13.6376 4.63095 12.6087 3.99173C11.5282 3.32657 9.84075 2.99173 8.60869 2.99173C7.37657 2.99173 6.68822 3.32657 5.60869 3.99173C4.56731 4.63095 3.23046 4.90109 2.60869 5.99173C1.97264 7.10941 1.60869 8.70127 1.60869 9.99173C1.60869 11.2961 1.97264 11.8741 2.60869 12.9917Z" fill="#212121"/>
</svg>
