<svg width="19" height="21" viewBox="0 0 19 21" fill="none" xmlns="http://www.w3.org/2000/svg">
<path d="M10 0C11.1957 0 11.9765 0.399872 13 1C14.0235 1.60038 14.4021 1.97238 15 3C15.5979 4.02762 16 5.7995 16 7C16 8.11928 15.5371 9.0233 15 10C14.4629 10.9767 13.8917 11.3693 13 12C14.1349 12.4883 15.1285 13.1251 16 14C16.8715 14.8751 17.5339 15.8606 18 17C18.5067 18.1804 19 19.718 19 21H17C17 19.6162 16.6789 18.1702 16 17C15.3211 15.83 14.1653 14.6819 13 14C11.8347 13.3184 11.3781 13 10 13C8.62187 13 7.16533 13.3184 6 14C4.83467 14.6819 3.67894 15.83 3 17C2.32107 18.1702 2 19.6162 2 21H0C0 19.0667 0.905598 17.6074 2 16C3.05386 14.4331 4.27734 12.7325 6 12C5.10827 11.3693 4.53707 10.9767 4 10C3.46293 9.0233 3 8.11928 3 7C3 5.7995 3.40213 4.02762 4 3C4.59786 1.97238 4.97654 1.60038 6 1C7.02347 0.399872 8.80427 0 10 0ZM10 2C9.12853 2 7.71947 2.57276 7 3C6.28053 3.42749 5.42561 3.27766 5 4C4.5744 4.72234 5 6.12514 5 7C5 7.8751 4.5744 8.27766 5 9C5.42561 9.72234 6.28053 10.5728 7 11C7.71947 11.4272 9.12853 11 10 11C10.8715 11 11.2805 11.4272 12 11C12.7195 10.5728 13.5744 9.72234 14 9C14.4256 8.27766 14 7.8751 14 7C14 6.12514 14.4256 4.72234 14 4C13.5744 3.27766 12.7296 3.42749 12 3C11.2704 2.57276 10.8512 2 10 2Z" fill="#212121"/>
</svg>
