<svg width="25" height="21" viewBox="0 0 25 21" fill="none" xmlns="http://www.w3.org/2000/svg">
<path d="M1.58625 1H3.58625C4.06032 1 5.23045 0.722902 5.58625 1C5.94204 1.27686 5.47809 2.552 5.58625 3L8.58625 13H19.5863L21.5863 6H8.58625L7.58625 4H24.5863L21.5863 14C21.4781 14.427 21.942 14.7231 21.5863 15C21.2305 15.2771 20.0391 15 19.5863 15H8.58625C8.13343 15 7.95317 15.2771 7.58625 15C7.21935 14.7231 6.6944 13.448 6.58625 13L3.58625 3H1.58625C1.30626 3 0.780325 3.1919 0.586254 3C0.392183 2.80786 0.586254 2.2771 0.586254 2C0.586254 1.7229 0.392183 1.19214 0.586254 1C0.780325 0.808107 1.30626 1 1.58625 1ZM9.58625 15C10.4272 15 10.9929 15.4031 11.5863 16C12.1796 16.5972 12.5863 17.189 12.5863 18C12.5863 18.811 12.1796 19.4028 11.5863 20C10.9929 20.5969 10.4272 21 9.58625 21C8.74528 21 8.16845 20.5872 7.58625 20C7.00404 19.4131 6.58625 18.8208 6.58625 18C6.58625 17.179 6.99294 16.5972 7.58625 16C8.17959 15.4031 8.76651 15 9.58625 15ZM9.58625 17C9.30626 17 8.78033 16.8081 8.58625 17C8.39218 17.1921 8.58625 17.7229 8.58625 18C8.58625 18.2771 8.39218 18.8079 8.58625 19C8.78033 19.1919 9.30626 19 9.58625 19C9.86623 19 10.3811 19.1919 10.5863 19C10.7914 18.8079 10.5863 18.2771 10.5863 18C10.5863 17.7229 10.7803 17.1921 10.5863 17C10.3922 16.8081 9.88847 17 9.58625 17ZM18.5863 15C19.406 15 19.9929 15.4031 20.5863 16C21.1796 16.5972 21.5863 17.189 21.5863 18C21.5863 18.811 21.1796 19.4028 20.5863 20C19.9929 20.5969 19.406 21 18.5863 21C17.7665 21 17.1897 20.5969 16.5863 20C15.9828 19.4028 15.5863 18.811 15.5863 18C15.5863 17.189 15.9929 16.5972 16.5863 16C17.1796 15.4031 17.7453 15 18.5863 15ZM18.5863 17C18.284 17 17.7803 16.8081 17.5863 17C17.3922 17.1921 17.5863 17.7229 17.5863 18C17.5863 18.2771 17.3922 18.8079 17.5863 19C17.7803 19.1919 18.284 19 18.5863 19C18.8885 19 19.4033 19.1919 19.5863 19C19.7692 18.8079 19.5863 18.2771 19.5863 18C19.5863 17.7229 19.7803 17.1921 19.5863 17C19.3922 16.8081 18.8662 17 18.5863 17Z" fill="#212121"/>
</svg>
