<svg width="15" height="17" viewBox="0 0 15 17" fill="none" xmlns="http://www.w3.org/2000/svg">
<path d="M2.89697 17H0.5V0H2.89697V17ZM5.35864 7.91895C5.30371 8.00793 5.25708 8.10999 5.21826 8.22595C5.17944 8.3429 5.16064 8.46191 5.16064 8.58301C5.16064 8.71594 5.18262 8.8429 5.22632 8.96497C5.27002 9.08691 5.32568 9.198 5.3916 9.297C5.41333 9.32996 5.44141 9.36597 5.47412 9.40491C5.50806 9.44397 5.54077 9.47998 5.57349 9.51294C7.854 11.8259 10.1455 14.1279 12.4478 16.4189C12.7563 16.729 13.0513 16.8949 13.3318 16.917C13.6135 16.939 13.8862 16.828 14.1499 16.585C14.4038 16.3419 14.5193 16.0709 14.4973 15.772C14.4756 15.4729 14.2993 15.157 13.9688 14.825C13.5059 14.35 13.0371 13.8739 12.5632 13.3979C12.0896 12.922 11.6187 12.4459 11.1509 11.97C10.6821 11.4939 10.2114 11.0179 9.73828 10.542C9.2644 10.0769 8.78491 9.61292 8.30005 9.14795C8.08008 8.9259 7.96948 8.73596 7.96948 8.57495C7.96948 8.41492 8.08008 8.224 8.30005 8.00195C8.78491 7.53699 9.26953 7.06689 9.75439 6.59094C10.228 6.11499 10.7048 5.63599 11.1836 5.15491L12.613 3.71899C13.0869 3.23193 13.5608 2.75098 14.0344 2.2749C14.3977 1.89893 14.5383 1.49695 14.4556 1.07092C14.373 0.644897 14.0952 0.392944 13.6216 0.315918C13.4343 0.281982 13.2224 0.31897 12.9854 0.42395C12.7485 0.528931 12.5522 0.652954 12.3982 0.796997C11.9243 1.25098 11.4504 1.71594 10.9778 2.19189L9.58105 3.59399C9.1123 4.06494 8.64136 4.53198 8.16772 4.99695C7.70581 5.4729 7.24292 5.94397 6.78003 6.40796C6.57104 6.60791 6.36084 6.80701 6.15186 7.00598C5.94287 7.20496 5.7439 7.41589 5.55688 7.63696C5.52393 7.66992 5.49097 7.71191 5.45825 7.76099C5.42529 7.81091 5.39746 7.85901 5.37549 7.90295L5.35864 7.91895Z" fill="#616161"/>
</svg>
