<svg width="16" height="13" viewBox="0 0 16 13" fill="none" xmlns="http://www.w3.org/2000/svg">
<path d="M0.751678 0H2.16675C2.46307 0 2.72269 0.0900879 2.94507 0.270264C3.16745 0.450195 3.31213 0.686523 3.3797 0.977539L5.03735 7.7998H12.2948L13.4875 3.24487H4.87564L4.55219 1.93384H15.125L13.4875 8.13281C13.4199 8.40991 13.2752 8.63916 13.0529 8.8186C12.8305 8.99878 12.5778 9.0896 12.2948 9.0896H5.03735C4.75433 9.0896 4.49854 8.99878 4.2692 8.8186C4.03989 8.63916 3.89203 8.40332 3.82443 8.11206L2.16675 1.28906H0.751678C0.57666 1.28906 0.428253 1.22705 0.306946 1.10205C0.185638 0.977539 0.125 0.824951 0.125 0.64502C0.125 0.464355 0.185638 0.312012 0.306946 0.187256C0.428253 0.0620117 0.57666 0 0.751678 0ZM5.80557 9.0896C6.33118 9.0896 6.77908 9.28394 7.1499 9.67188C7.52072 10.0598 7.70584 10.5173 7.70584 11.0447C7.70584 11.5718 7.52072 12.0293 7.1499 12.418C6.77908 12.8054 6.33118 13 5.80557 13C5.27997 13 4.83521 12.8098 4.47134 12.428C4.10745 12.0464 3.92554 11.5886 3.92554 11.0552C3.92554 10.5215 4.11063 10.0598 4.48148 9.67188C4.85226 9.28394 5.29324 9.0896 5.80557 9.0896ZM5.80557 10.3999C5.63058 10.3999 5.48209 10.4624 5.36087 10.5872C5.23956 10.7117 5.17892 10.8647 5.17892 11.0447C5.17892 11.2249 5.23956 11.3774 5.36087 11.5022C5.48209 11.6274 5.63058 11.6895 5.80557 11.6895C5.98053 11.6895 6.13217 11.6274 6.26041 11.5022C6.38864 11.3774 6.45248 11.2249 6.45248 11.0447C6.45248 10.8647 6.39182 10.7117 6.27051 10.5872C6.14923 10.4624 5.99448 10.3999 5.80557 10.3999ZM11.5064 9.0896C12.0187 9.0896 12.4597 9.28394 12.8305 9.67188C13.2013 10.0598 13.3864 10.5173 13.3864 11.0447C13.3864 11.5718 13.2013 12.0293 12.8305 12.418C12.4597 12.8054 12.0187 13 11.5064 13C10.994 13 10.5493 12.8054 10.1721 12.418C9.79498 12.0293 9.60611 11.5718 9.60611 11.0447C9.60611 10.5173 9.7912 10.0598 10.162 9.67188C10.5329 9.28394 10.9807 9.0896 11.5064 9.0896ZM11.5064 10.3999C11.3175 10.3999 11.1627 10.4624 11.0414 10.5872C10.9201 10.7117 10.8595 10.8647 10.8595 11.0447C10.8595 11.2249 10.9201 11.3774 11.0414 11.5022C11.1627 11.6274 11.3175 11.6895 11.5064 11.6895C11.6953 11.6895 11.8469 11.6274 11.9612 11.5022C12.0756 11.3774 12.1331 11.2249 12.1331 11.0447C12.1331 10.8647 12.0724 10.7117 11.9511 10.5872C11.8298 10.4624 11.6814 10.3999 11.5064 10.3999Z" fill="#212121"/>
</svg>
