<svg width="16" height="14" viewBox="0 0 16 14" fill="none" xmlns="http://www.w3.org/2000/svg">
<path d="M4.63643 0.545654C5.90501 0.545654 7.06522 1.07153 8.11644 2.1228C9.16765 1.07153 10.3279 0.545654 11.5964 0.545654C12.3164 0.545654 12.985 0.72876 13.6021 1.09424C14.2193 1.46021 14.7109 1.95142 15.0764 2.5686C15.4426 3.18579 15.625 3.85425 15.625 4.57397C15.625 4.92871 15.5564 5.2832 15.4193 5.63696C15.3054 5.9231 15.1505 6.20898 14.9564 6.49414C14.8193 6.68896 14.665 6.87769 14.4936 7.05981L8.51073 13.0771L8.11644 13.4543L1.7393 7.04272C1.56786 6.86035 1.41908 6.67163 1.29359 6.47729C0.847855 5.78027 0.625 5.14624 0.625 4.57397C0.625 3.85425 0.805008 3.18579 1.16499 2.5686C1.52501 1.95142 2.01358 1.46021 2.63072 1.09424C3.24786 0.72876 3.91643 0.545654 4.63643 0.545654ZM5.78502 1.86548C5.38521 1.70581 5.00255 1.62573 4.63643 1.62573C4.0995 1.62573 3.60542 1.76025 3.15358 2.02856C2.70235 2.29712 2.34541 2.65723 2.08215 3.10864C1.8195 3.5603 1.68787 4.04883 1.68787 4.57397C1.68787 4.95142 1.84827 5.38623 2.16786 5.8772C2.27072 6.03735 2.39072 6.19165 2.52786 6.33984L8.11644 11.9285L13.5336 6.51147L13.7907 6.18579C13.9964 5.93481 14.1624 5.68872 14.2879 5.44849C14.4593 5.10571 14.545 4.81421 14.545 4.57397C14.545 4.04883 14.4134 3.5603 14.1507 3.10864C13.8881 2.65723 13.5305 2.29712 13.0793 2.02856C12.6281 1.76025 12.1334 1.62573 11.5964 1.62573C11.2309 1.62573 10.8477 1.70581 10.4479 1.86548C10.1166 2.00269 9.78542 2.18042 9.45357 2.39722C9.21358 2.5686 8.98521 2.75171 8.76787 2.94556L8.51073 3.18579L8.11644 3.63135L7.72215 3.18579L7.46501 2.94556C7.24767 2.75171 7.0193 2.5686 6.77928 2.39722C6.44806 2.18042 6.11623 2.00269 5.78502 1.86548Z" fill="#212121"/>
</svg>
