<svg width="15" height="17" viewBox="0 0 15 17" fill="none" xmlns="http://www.w3.org/2000/svg">
<path d="M9.64144 7.91895C9.70711 8.00793 9.75692 8.10999 9.78988 8.22595C9.82357 8.3429 9.83968 8.46191 9.83968 8.58301C9.83968 8.71594 9.82064 8.8429 9.78182 8.96497C9.743 9.08691 9.68538 9.198 9.60848 9.297C9.58577 9.32996 9.56185 9.36597 9.53402 9.40491C9.50594 9.44397 9.47616 9.47998 9.4432 9.51294C7.16268 11.8259 4.87142 14.1279 2.56795 16.4189C2.26058 16.729 1.96273 16.8949 1.67611 16.917C1.38949 16.939 1.11971 16.828 0.86678 16.585C0.602132 16.3419 0.48055 16.0709 0.502523 15.772C0.524495 15.4729 0.701497 15.157 1.03206 14.825L2.45247 13.3979C2.91536 12.922 3.38338 12.4459 3.85726 11.97L5.27865 10.542C5.75228 10.0769 6.22616 9.61292 6.70003 9.14795C6.93099 8.9259 7.04451 8.73596 7.03841 8.57495C7.03255 8.41492 6.92 8.224 6.70003 8.00195C6.21517 7.53699 5.73543 7.06689 5.26253 6.59094C4.77669 6.11499 4.29793 5.63599 3.82406 5.15491C3.35042 4.67395 2.87655 4.19495 2.40267 3.71899C1.92904 3.23193 1.45516 2.75098 0.982259 2.2749C0.607015 1.89893 0.463704 1.49695 0.552327 1.07092C0.640706 0.644897 0.921468 0.392944 1.39534 0.315918C1.5826 0.281982 1.79476 0.31897 2.03158 0.42395C2.26839 0.528931 2.45858 0.652954 2.60189 0.796997C3.07454 1.25098 3.54867 1.71594 4.02254 2.19189C4.49618 2.65601 4.96712 3.1239 5.43587 3.59399C5.90365 4.06494 6.36947 4.53198 6.8326 4.99695C7.29525 5.4729 7.76302 5.94397 8.2369 6.40796C8.4349 6.60791 8.63924 6.80701 8.84823 7.00598C9.05721 7.20496 9.25521 7.41589 9.4432 7.63696C9.47616 7.66992 9.50911 7.71191 9.54183 7.76099C9.57576 7.81091 9.60848 7.85901 9.64144 7.90295V7.91895ZM12.1041 0H14.5001V17H12.1041V0Z" fill="#616161"/>
</svg>
