<svg width="70" height="71" viewBox="0 0 70 71" fill="none" xmlns="http://www.w3.org/2000/svg">
<path d="M17.3604 5.0708C22.7734 1.89746 28.6533 0.310547 35 0.310547C41.3472 0.310547 47.2266 1.89746 52.6401 5.0708C57.9268 8.18359 62.127 12.3838 65.2397 17.6704C68.4131 23.084 70 28.9634 70 35.3105C70 41.6572 68.4131 47.5371 65.2397 52.9502C62.127 58.2402 57.9268 62.4404 52.6401 65.5508C47.2266 68.7241 41.3472 70.3105 35 70.3105C28.6533 70.3105 22.7734 68.7241 17.3604 65.5508C12.0703 62.4404 7.87012 58.2402 4.75977 52.9502C1.58643 47.5371 0 41.6572 0 35.3105C0 28.9634 1.58643 23.084 4.75977 17.6704C7.87012 12.3838 12.0703 8.18359 17.3604 5.0708ZM6.06689 32.417C5.93994 33.6636 5.87988 34.627 5.87988 35.3105C5.87988 35.9966 5.93994 36.9604 6.06689 38.2041H14.8403L14.7466 37.2705C14.6206 36.3999 14.5601 35.7471 14.5601 35.3105C14.5601 34.627 14.6206 33.6636 14.7466 32.417H6.06689ZM7.09375 44.084C8.52393 48.627 10.9336 52.5938 14.3267 55.9839C17.7168 59.377 21.6836 61.7866 26.2266 63.2168V53.6968C24.1104 52.7036 22.2271 51.3799 20.5796 49.731C18.9302 48.0835 17.6069 46.2002 16.6138 44.084H7.09375ZM26.2266 7.40381C21.6836 8.83643 17.7334 11.2471 14.373 14.6367C11.0137 18.0303 8.6167 21.9971 7.18652 26.5376H16.6138C17.6069 24.4238 18.9302 22.5405 20.5796 20.8906C22.2271 19.2432 24.1104 17.9204 26.2266 16.9238V7.40381ZM35 20.7505C32.3237 20.7505 29.8809 21.4038 27.6729 22.7109C25.4634 24.0171 23.707 25.7769 22.3999 27.9839C21.0933 30.1934 20.4395 32.6367 20.4395 35.3105C20.4395 37.9868 21.0933 40.4297 22.3999 42.6377C23.707 44.8472 25.4634 46.6035 27.6729 47.9106C29.8809 49.2173 32.3237 49.8711 35 49.8711C37.6738 49.8711 40.1172 49.2173 42.3267 47.9106C44.5337 46.6035 46.2935 44.8472 47.5996 42.6377C48.9067 40.4297 49.5601 37.9868 49.5601 35.3105C49.5601 32.6367 48.9067 30.1934 47.5996 27.9839C46.2935 25.7769 44.5337 24.0171 42.3267 22.7109C40.1172 21.4038 37.6738 20.7505 35 20.7505ZM37.8936 6.28369C36.647 6.16016 35.6836 6.09717 35 6.09717C34.314 6.09717 33.3501 6.16016 32.1064 6.28369V15.1504L33.04 15.0571C33.9106 14.9341 34.5635 14.8711 35 14.8711C35.4341 14.8711 36.0874 14.9341 36.96 15.0571L37.8936 15.1504V6.28369ZM32.1064 55.4702V64.2437C33.3501 64.3706 34.314 64.4307 35 64.4307C35.6836 64.4307 36.647 64.3706 37.8936 64.2437V55.4702L36.96 55.564C36.0874 55.6899 35.4341 55.7505 35 55.7505C34.5635 55.7505 33.9106 55.6899 33.04 55.564L32.1064 55.4702ZM43.7729 7.40381V16.9238C45.8867 17.9204 47.77 19.2432 49.4199 20.8906C51.0674 22.5405 52.3901 24.4238 53.3867 26.5376H62.9067C61.4736 21.9971 59.0635 18.0303 55.6733 14.6367C52.2803 11.2471 48.3135 8.83643 43.7729 7.40381ZM53.3867 44.084C52.3901 46.2002 51.0674 48.0835 49.4199 49.731C47.77 51.3799 45.8867 52.7036 43.7729 53.6968V63.2168C48.3135 61.7866 52.2803 59.377 55.6733 55.9839C59.0635 52.5938 61.4736 48.627 62.9067 44.084H53.3867ZM55.1602 32.417C55.1602 32.604 55.1904 32.917 55.2534 33.3506C55.3765 34.2231 55.4395 34.8765 55.4395 35.3105C55.4395 35.7471 55.3765 36.3999 55.2534 37.2705L55.1602 38.2041H64.0269C64.1499 36.9604 64.2134 35.9966 64.2134 35.3105C64.2134 34.627 64.1499 33.6636 64.0269 32.417H55.1602Z" fill="#333333"/>
</svg>
