<svg width="70" height="71" viewBox="0 0 70 71" fill="none" xmlns="http://www.w3.org/2000/svg">
<path d="M45.7759 2.98291H48.4482H67.3276V8.32812H57.5C61.4067 11.604 64.4521 15.5415 66.6382 20.1382C68.8789 24.9102 70 29.9658 70 35.3105C70 41.6343 68.3901 47.4961 65.1724 52.8965C62.0693 58.1855 57.873 62.3794 52.5859 65.4829C47.1831 68.7007 41.3213 70.3105 35.0005 70.3105C28.6763 70.3105 22.8145 68.7007 17.4141 65.4829C12.125 62.3794 7.93164 58.1855 4.82764 52.8965C1.60742 47.4961 0 41.6343 0 35.3105V32.6382H5.34521V35.3105C5.34521 40.6553 6.69385 45.6274 9.39648 50.2241C12.0386 54.707 15.6035 58.272 20.0864 60.9141C24.6831 63.6167 29.6553 64.9653 35.0005 64.9653C40.3447 64.9653 45.3145 63.6167 49.9136 60.9141C54.3965 58.272 57.959 54.707 60.6035 50.2241C63.3037 45.6274 64.6548 40.6553 64.6548 35.3105C64.6548 30.1377 63.418 25.3413 60.9482 20.9141C58.5903 16.7202 55.3447 13.2417 51.2065 10.4829V24.5347H45.7759V2.98291ZM2.58643 21.8623L7.5 24.1035V24.1899L6.63818 26.3452L6.03467 28.5L0.948242 27.0347L1.46582 24.7935L1.55176 24.6211V24.5347L2.41406 22.3799V22.293L2.5 22.207L2.58643 21.8623ZM8.27637 12.6382L12.4136 16.1729L11.8105 16.8623V16.9487L10.6035 18.5864L10.4312 18.7593L9.65527 19.9653L5.08643 17.0347L6.12061 15.4834V15.3965L7.75879 13.4141L8.27637 12.6382ZM16.5518 5.65576L19.397 10.2241L18.1899 11.0864L18.0176 11.1724L16.4658 12.2935L16.293 12.3794L15.6895 12.897L12.1558 8.84521L12.9312 8.15527H13.104L15 6.69043H15.0864L15.1729 6.60352L16.5518 5.65576ZM26.4653 1.43164L28.0171 6.60352L25.9482 7.20703L23.707 8.06934H23.6211L21.3794 3.15576L21.6382 3.06934L21.7241 2.98291H21.8105L24.0518 2.12109H24.1377L24.2246 2.03467L26.4653 1.43164ZM32.3276 0.310547H35.0005V5.65576H32.3276V0.310547Z" fill="#333333"/>
</svg>
