<svg width="70" height="71" viewBox="0 0 70 71" fill="none" xmlns="http://www.w3.org/2000/svg">
<path d="M68.2772 18.9658C68.7354 18.9658 69.1378 19.1384 69.4827 19.4832C69.8276 19.8279 70 20.2319 70 20.6902V30.5525C70 31.0125 69.8276 31.4148 69.4827 31.7595C69.1378 32.1045 68.7354 32.2771 68.2772 32.2771H1.79358C1.2876 32.2771 0.862305 32.1045 0.517334 31.7595C0.172607 31.4148 0 31.0125 0 30.5525V20.6902C0 20.2319 0.172607 19.8279 0.517334 19.4832C0.862305 19.1384 1.2876 18.9658 1.79358 18.9658H68.2772ZM67.1736 21.7939H2.89722V29.449H67.1736V21.7939ZM66.2079 29.449C66.3458 29.5869 66.4591 29.7593 66.5527 29.9661C66.6448 30.1733 66.6907 30.3916 66.6907 30.6216V68.967C66.6907 69.425 66.5281 69.8159 66.2079 70.1379C65.886 70.4597 65.4934 70.6208 65.0353 70.6208H5.03552C4.57568 70.6208 4.18311 70.4597 3.86279 70.1379C3.54089 69.8159 3.38 69.425 3.38 68.967V30.6216V30.5525C3.38 30.3687 3.42603 30.1733 3.51794 29.9661C3.60986 29.7593 3.72485 29.5869 3.86279 29.449H26.6898V28.9661H29.5179V29.449H40.5529V28.9661H43.3793V29.449H66.2079ZM63.8625 31.7942H6.20813V67.7944H63.8625V31.7942ZM34.4828 20.1384C34.5288 20.2764 34.5747 20.4028 34.6207 20.5178C34.6667 20.6328 34.7357 20.7361 34.8276 20.8281C34.9196 21.0581 35.0001 21.2537 35.0691 21.4146C35.1381 21.5757 35.1954 21.7019 35.2415 21.7939H29.5179V21.9319C29.334 21.9319 29.15 21.9204 28.9661 21.8975C28.7821 21.8743 28.5983 21.8398 28.4143 21.7939C28.1383 21.748 27.851 21.7019 27.552 21.656C27.2531 21.6101 26.9657 21.564 26.6898 21.5181H26.4828C25.3792 21.2881 24.2871 21.0237 23.2081 20.7246C22.1274 20.4258 21.1272 20.0693 20.2075 19.6555C19.9316 19.5654 19.6671 19.4617 19.4143 19.3452C19.1613 19.2319 18.897 19.1038 18.621 18.9658L18.552 18.8967C17.3104 18.3008 16.1378 17.5764 15.0358 16.7258C13.9321 15.875 12.9418 14.9209 12.0696 13.863C8.80469 9.81787 7.80444 6.49561 9.06909 3.89722C10.3336 1.30078 12.4589 0 15.4496 0H15.5186C16.7125 0.0476074 17.8737 0.254639 19.0004 0.62085C20.127 0.990234 21.1501 1.49609 22.0699 2.13818C23.08 2.82812 24.0916 3.7478 25.1033 4.89746C26.115 6.09326 27.1036 7.40381 28.0693 8.82764C29.035 10.2549 29.9318 11.7017 30.7595 13.1731C31.6316 14.6448 32.3904 16.0244 33.0358 17.3103L33.3807 18.0002L33.8619 18.9658L34.2758 19.6555L34.4828 20.1384ZM28.6902 18.9658C29.058 19.0134 29.4144 19.0593 29.7593 19.1038C30.1042 19.1514 30.4376 19.1729 30.7595 19.1729L30.6216 18.9658L30.4147 18.4141L30.1387 18.0002C28.8052 15.4724 27.2531 12.8628 25.4827 10.1726C23.7123 7.48413 22.0453 5.61035 20.4834 4.55249C19.7936 4.04663 19.0233 3.64429 18.1726 3.34546C17.3219 3.04639 16.4137 2.87402 15.4496 2.82812C14.6218 2.82812 13.8861 3.00049 13.2423 3.34546C12.5969 3.69043 12.1385 4.11572 11.8627 4.62158C11.4489 5.49536 11.4603 6.5874 11.8972 7.89819C12.3341 9.20703 13.1273 10.5767 14.277 12.0005C15.8389 13.978 17.7588 15.4612 20.035 16.4497C22.3113 17.4385 24.5284 18.1628 26.6898 18.6208C27.0117 18.6687 27.3451 18.7244 27.6901 18.7932C28.0349 18.8623 28.3683 18.9214 28.6902 18.9658ZM43.3793 18.7588V70.6208H26.6898V18.6208C27.0117 18.6687 27.3451 18.7244 27.6901 18.7932C28.0349 18.8623 28.3683 18.9214 28.6902 18.9658H30.6906L30.4147 18.4141L30.7595 18.4829C30.6659 18.3008 30.5756 18.1035 30.4836 17.8965C30.39 17.6897 30.2766 17.4961 30.1387 17.3103H33.0358L33.3807 18.0002L33.8619 18.9658H36.897L37.3798 18.0002L37.7937 17.3103H40.6218C40.5282 17.4961 40.4247 17.6897 40.3114 17.8965C40.1965 18.1035 40.093 18.3008 40.001 18.4829L40.4149 18.4141C40.3213 18.5076 40.2654 18.5996 40.2424 18.6899C40.2178 18.7834 40.1833 18.8755 40.1389 18.9658H42.0703L43.3793 18.7588ZM40.4839 20.1384H29.5179V67.7944H40.4839V20.1384ZM55.3109 0C58.3 0 60.4252 1.30078 61.6898 3.89722C62.9545 6.49561 61.9772 9.81787 58.7599 13.863H58.6909C57.8171 14.9209 56.8384 15.875 55.7594 16.7258C54.6787 17.5764 53.4945 18.3235 52.2069 18.9658C51.9309 19.1038 51.655 19.2319 51.3792 19.3452C51.1049 19.4617 50.8503 19.5654 50.6219 19.6555L50.829 19.5867C49.6777 20.0464 48.4937 20.449 47.2766 20.7937C46.058 21.1384 44.7588 21.426 43.3793 21.656L42.4153 21.7939C41.7699 21.886 41.1489 21.9548 40.5529 22.0007V21.7939H35.5175C35.5634 21.7019 35.6324 21.5757 35.7244 21.4146C35.8164 21.2537 35.9083 21.0581 36.0002 20.8281C36.0463 20.7361 36.1038 20.6213 36.1727 20.4834L36.3451 20.1384C36.3911 20.0464 36.4257 19.9775 36.4486 19.9314C36.4717 19.8872 36.5061 19.7935 36.5521 19.6555C36.598 19.5654 36.6555 19.4617 36.7245 19.3452C36.7935 19.2319 36.8511 19.1038 36.897 18.9658L37.3798 18.0002L37.7937 17.3103C38.4375 16.0244 39.1732 14.6448 40.001 13.1731C40.873 11.7017 41.7812 10.2549 42.724 8.82764C43.6667 7.40381 44.6669 6.09326 45.7245 4.89746C46.7363 3.7478 47.725 2.82812 48.6907 2.13818C49.6086 1.49609 50.632 0.990234 51.7585 0.62085C52.8853 0.254639 54.0693 0.0476074 55.3109 0ZM58.8978 7.89819C59.3116 6.5874 59.3116 5.51831 58.8978 4.69067C58.6219 4.13867 58.162 3.69043 57.5183 3.34546C56.8728 3.00049 56.1157 2.82812 55.2419 2.82812C54.3223 2.87402 53.437 3.04639 52.5863 3.34546C51.7356 3.64429 50.9669 4.04663 50.2772 4.55249C48.666 5.61035 46.9891 7.49585 45.2417 10.2073C43.4943 12.9204 41.9537 15.5183 40.6218 18.0002L40.3459 18.4141C40.2999 18.5076 40.2523 18.5996 40.2079 18.6899C40.162 18.7834 40.1144 18.8755 40.0699 18.9658L39.932 19.1729C40.2999 19.1729 40.6663 19.1514 41.0356 19.1038C41.402 19.0593 41.7468 19.0134 42.0703 18.9658L43.3793 18.7588C45.5867 18.345 47.9073 17.6338 50.3462 16.6221C52.7817 15.6104 54.8281 14.093 56.4836 12.0696C57.6792 10.5996 58.484 9.20703 58.8978 7.89819Z" fill="#212121"/>
</svg>
