<svg width="71" height="52" viewBox="0 0 71 52" fill="none" xmlns="http://www.w3.org/2000/svg">
<path d="M41.3745 0.015625C41.8766 0.015625 42.3233 0.21167 42.7142 0.599609C43.102 0.990479 43.2967 1.43579 43.2967 1.93945V2.0083V41.165C43.2967 41.3481 43.2852 41.5085 43.2623 41.6462C43.2394 41.7837 43.205 41.9211 43.1608 42.0581C42.976 42.5161 42.6799 42.8809 42.2676 43.156C41.8553 43.4304 41.3973 43.5928 40.8936 43.6372H25.642C25.642 43.4995 25.6536 43.3621 25.6764 43.2244C25.6993 43.0869 25.7108 42.95 25.7108 42.8125C25.7108 42.4478 25.6764 42.0923 25.6093 41.7488C25.5406 41.4053 25.4376 41.0959 25.3002 40.8215H40.4813V2.83276H3.31699V40.8215H14.5834V40.7532C14.446 41.0737 14.343 41.4053 14.2742 41.7488C14.2055 42.0923 14.1712 42.4478 14.1712 42.8125C14.1712 42.95 14.181 43.0869 14.2055 43.2244C14.2283 43.3621 14.2398 43.4995 14.2398 43.6372H2.42389C1.91989 43.5928 1.47327 43.3867 1.08405 43.0186C0.694733 42.6536 0.5 42.1956 0.5 41.6462V1.87061C0.5 1.36646 0.683197 0.93335 1.04959 0.564941C1.41602 0.200195 1.85129 0.015625 2.3551 0.015625H41.3745ZM28.2529 40.8215V40.7532C28.3445 41.0276 28.4017 41.3369 28.4247 41.6804C28.4476 42.0239 28.459 42.3562 28.459 42.675V42.8125V43.2244V43.6372C28.23 45.7913 27.3024 47.6106 25.6764 49.0991C24.0503 50.5876 22.1396 51.3308 19.941 51.3308C17.6965 51.3308 15.7612 50.5876 14.1368 49.0991C12.5107 47.6106 11.606 45.7913 11.4229 43.6372V43.2244V42.8125C11.4229 42.4478 11.4343 42.0923 11.4572 41.7488C11.4801 41.4053 11.5374 41.0959 11.6289 40.8215V40.7532C12.087 38.875 13.0817 37.3174 14.6178 36.0808C16.1506 34.8438 17.9255 34.2251 19.941 34.2251C21.9563 34.2251 23.7297 34.8438 25.2657 36.0808C26.7986 37.3174 27.7949 38.8975 28.2529 40.8215ZM19.941 48.5837C21.4067 48.5837 22.6778 48.1028 23.7542 47.1414C24.829 46.1792 25.4589 45.0112 25.642 43.6372C25.642 43.4995 25.6536 43.3621 25.6764 43.2244C25.6993 43.0869 25.7108 42.95 25.7108 42.8125C25.6191 41.2566 25.0254 39.9397 23.926 38.8633C22.8266 37.7866 21.4983 37.2483 19.941 37.2483C18.3835 37.2483 17.0552 37.7866 15.9575 38.8633C14.8582 39.9397 14.2628 41.2566 14.1712 42.8125C14.1712 42.95 14.181 43.0869 14.2055 43.2244C14.2283 43.3621 14.2398 43.4995 14.2398 43.6372C14.4688 45.0112 15.1086 46.1792 16.1637 47.1414C17.2156 48.1028 18.4752 48.5837 19.941 48.5837ZM70.4312 25.0889C70.4312 25.1826 70.4427 25.2852 70.4656 25.3982C70.4885 25.5144 70.5 25.6389 70.5 25.7759V39.6536C70.5 40.2944 70.271 40.8557 69.8129 41.3369C69.3548 41.8179 68.7839 42.0581 68.0968 42.0581H61.4321V41.9897C61.3406 41.4856 61.1918 40.9927 60.9855 40.5125C60.781 40.0312 60.5161 39.6074 60.197 39.241H67.7532V25.9133L67.0662 25.0889L56.693 12.175H43.0234V39.241H51.2667C50.9444 39.6074 50.6828 40.0312 50.4766 40.5125C50.2705 40.9927 50.1216 41.5085 50.03 42.0581H43.1608C42.5179 41.9666 41.9929 41.7034 41.5806 41.2678C41.1683 40.8328 40.9622 40.2944 40.9622 39.6536V9.42676H57.1053H57.174C57.4488 9.42676 57.7236 9.48584 57.9984 9.59863C58.2733 9.71484 58.5023 9.88647 58.6855 10.1138L70.0189 24.2661C70.1106 24.4036 70.1907 24.5293 70.2595 24.6438C70.3281 24.7583 70.3854 24.907 70.4312 25.0889ZM64.2493 42.0581C64.2493 42.1956 64.2607 42.3213 64.2836 42.4348C64.3065 42.5503 64.3179 42.675 64.3179 42.8125V42.95V43.0869C64.3179 45.4231 63.4819 47.4275 61.8101 49.0991C60.1382 50.7712 58.1359 51.6052 55.7997 51.6052C53.4179 51.6052 51.391 50.7712 49.7208 49.0991C48.049 47.4275 47.213 45.4231 47.213 43.0869V42.95V42.8125V42.4348V42.0581V41.9897C47.3962 39.8372 48.3009 38.0044 49.927 36.4929C51.5514 34.9812 53.4866 34.2251 55.7311 34.2251C57.9739 34.2251 59.9092 34.9812 61.5352 36.4929C63.1614 38.0044 64.066 39.8594 64.2493 42.0581ZM55.7311 48.5837C57.3343 48.5837 58.6954 48.0225 59.8192 46.9011C60.9398 45.7783 61.5009 44.4172 61.5009 42.8125C61.5009 42.675 61.4894 42.5374 61.4665 42.4016C61.4437 42.2646 61.4321 42.1501 61.4321 42.0581V41.9897C61.249 40.6157 60.6191 39.4587 59.5444 38.5198C58.4679 37.5813 57.1968 37.1116 55.7311 37.1116C54.2653 37.1116 53.0057 37.5813 51.9539 38.5198C50.8987 39.4587 50.2574 40.6387 50.03 42.0581V41.9897V42.4016C50.03 42.5374 50.0054 42.675 49.9613 42.8125C49.9613 44.4172 50.5207 45.7783 51.6447 46.9011C52.7652 48.0225 54.1279 48.5837 55.7311 48.5837ZM70.5 25.7759C70.5 25.6389 70.4885 25.5144 70.4656 25.3982C70.4427 25.2852 70.4312 25.1826 70.4312 25.0889H53.8073C53.6699 25.0889 53.5439 25.0332 53.4294 24.917C53.3149 24.8042 53.2576 24.678 53.2576 24.541V17.5327C53.2576 17.3513 53.3034 17.2131 53.3951 17.1206C53.4866 17.0303 53.624 16.9824 53.8073 16.9824H64.1805L61.9131 14.1677H53.8073C52.8911 14.1677 52.1011 14.5 51.4384 15.1641C50.7726 15.8279 50.4423 16.6182 50.4423 17.5327V24.541C50.4423 25.457 50.7612 26.2473 51.4041 26.9097C52.0438 27.5754 52.8453 27.906 53.8073 27.906H70.5V25.7759Z" fill="#212121"/>
</svg>
